<svg xmlns="http://www.w3.org/2000/svg" viewBox="0 0 1080 1920">
  <defs>
    <linearGradient id="bg" x1="0" y1="0" x2="1" y2="1">
      <stop offset="0" stop-color="#1E1841"/>
      <stop offset="0.48" stop-color="#5E4A82"/>
      <stop offset="1" stop-color="#6F4D76"/>
    </linearGradient>
    <radialGradient id="dawn" cx="28%" cy="18%" r="58%">
      <stop offset="0" stop-color="#D9C4FF" stop-opacity="0.58"/>
      <stop offset="0.45" stop-color="#A98EF4" stop-opacity="0.2"/>
      <stop offset="1" stop-color="#A98EF4" stop-opacity="0"/>
    </radialGradient>
    <radialGradient id="glow" cx="78%" cy="72%" r="46%">
      <stop offset="0" stop-color="#FFD69F" stop-opacity="0.34"/>
      <stop offset="1" stop-color="#FFD69F" stop-opacity="0"/>
    </radialGradient>
  </defs>
  <rect width="1080" height="1920" fill="url(#bg)"/>
  <rect width="1080" height="1920" fill="url(#dawn)"/>
  <rect width="1080" height="1920" fill="url(#glow)"/>
  <path d="M-70 1520 C220 1320 380 1510 610 1330 C810 1170 960 1240 1150 1070 L1150 1920 L-70 1920 Z" fill="#F7D7B0" opacity="0.18"/>
  <path d="M-80 1645 C205 1450 430 1620 690 1430 C880 1292 1015 1330 1160 1210 L1160 1920 L-80 1920 Z" fill="#FFFFFF" opacity="0.08"/>
  <g fill="#FFFFFF" opacity="0.45">
    <circle cx="184" cy="272" r="3"/><circle cx="288" cy="438" r="2"/><circle cx="458" cy="238" r="2.5"/>
    <circle cx="718" cy="350" r="2"/><circle cx="868" cy="532" r="3"/><circle cx="928" cy="232" r="2"/>
    <circle cx="142" cy="702" r="2"/><circle cx="394" cy="812" r="2.5"/><circle cx="778" cy="808" r="2"/>
  </g>
</svg>
